<?xml version="1.0" encoding="UTF-8"?>
<svg id="Capa_2" data-name="Capa 2" xmlns="http://www.w3.org/2000/svg" viewBox="0 0 1080 1080">
  <defs>
    <style>
      .cls-1 {
        fill: #e52421;
        font-size: 132px;
      }

      .cls-1, .cls-2 {
        font-weight: 700;
      }

      .cls-2 {
        font-size: 27px;
        letter-spacing: .4em;
      }

      .cls-2, .cls-3 {
        fill: #fff;
      }

      .cls-2, .cls-4 {
        font-family: Montserrat-ExtraBold, Montserrat;
      }

      .cls-5 {
        font-family: Montserrat-ExtraBoldItalic, Montserrat;
        font-style: italic;
      }

      .cls-6 {
        fill: #1d1d1b;
        stroke: #fff;
        stroke-miterlimit: 10;
      }

      .cls-3 {
        stroke-width: 0px;
      }
    </style>
  </defs>
  <rect class="cls-6" y="0" width="1080" height="1080"/>
  <g>
    <path class="cls-3" d="m128.96,517.01c2.29-2.33,5.06-4.11,8.32-5.35,3.25-1.23,6.86-1.85,10.82-1.85,4.49,0,8.56.86,12.21,2.57,3.65,1.72,7.06,4.29,10.23,7.72l16.63-15.05c-4.49-5.46-10.16-9.64-17.03-12.54-6.86-2.9-14.65-4.36-23.36-4.36-7.48,0-14.37,1.17-20.66,3.5-6.29,2.33-11.73,5.66-16.3,9.97-4.58,4.31-8.14,9.4-10.69,15.25-2.55,5.85-3.83,12.3-3.83,19.34s1.28,13.49,3.83,19.34c2.55,5.85,6.09,10.93,10.63,15.25,4.53,4.31,9.92,7.64,16.17,9.97,6.25,2.33,13.02,3.5,20.33,3.5,6.69,0,13.51-1.01,20.46-3.04,6.95-2.02,13.07-4.93,18.35-8.71v-38.28h-23.1v25.34c-.93.43-1.85.8-2.77,1.12-3.7,1.28-7.48,1.91-11.35,1.91s-7.42-.64-10.63-1.91c-3.21-1.27-5.96-3.08-8.25-5.41-2.29-2.33-4.07-5.12-5.35-8.38-1.28-3.25-1.91-6.82-1.91-10.69s.64-7.68,1.91-10.89c1.27-3.21,3.06-5.98,5.35-8.32Z"/>
    <path class="cls-3" d="m279.97,542.22c3.34-5.06,5.02-11.07,5.02-18.02s-1.67-13.13-5.02-18.28c-3.35-5.15-8.08-9.08-14.19-11.81-6.12-2.73-13.4-4.09-21.85-4.09h-42.24v92.4h26.14v-24.55h14.27l16.75,24.55h27.98l-19.97-29.1c5.58-2.66,9.96-6.35,13.1-11.1Zm-25.41-28.05c2.68,2.38,4.03,5.72,4.03,10.03s-1.34,7.52-4.03,9.9c-2.69,2.38-6.75,3.56-12.21,3.56h-14.52v-27.06h14.52c5.46,0,9.52,1.19,12.21,3.56Z"/>
    <path class="cls-3" d="m359.7,540.44c0,7.92-1.54,13.6-4.62,17.03-3.08,3.43-7.35,5.15-12.8,5.15s-9.75-1.72-12.87-5.15c-3.12-3.43-4.69-9.11-4.69-17.03v-50.42h-26.14v51.22c0,13.73,3.83,24.33,11.48,31.81,7.66,7.48,18.3,11.22,31.94,11.22s24.29-3.74,31.94-11.22c7.66-7.48,11.48-18.08,11.48-31.81v-51.22h-25.74v50.42Z"/>
    <path class="cls-3" d="m467.21,494.11c-6.12-2.73-13.4-4.09-21.85-4.09h-42.24v92.4h26.14v-24.16h16.1c8.45,0,15.73-1.39,21.85-4.16,6.12-2.77,10.84-6.71,14.19-11.81,3.34-5.1,5.02-11.13,5.02-18.08s-1.67-13.13-5.02-18.28c-3.35-5.15-8.08-9.08-14.19-11.81Zm-11.22,40c-2.69,2.38-6.76,3.56-12.21,3.56h-14.52v-27.06h14.52c5.46,0,9.53,1.19,12.21,3.56,2.68,2.38,4.03,5.72,4.03,10.03s-1.34,7.52-4.03,9.9Z"/>
    <path class="cls-3" d="m594.46,517.07c-2.6-5.81-6.18-10.89-10.76-15.25-4.58-4.36-9.96-7.72-16.17-10.1-6.2-2.38-13.05-3.56-20.53-3.56s-14.21,1.19-20.46,3.56c-6.25,2.38-11.68,5.74-16.3,10.1-4.62,4.36-8.21,9.44-10.76,15.25-2.55,5.81-3.83,12.19-3.83,19.14s1.27,13.33,3.83,19.14c2.55,5.81,6.14,10.89,10.76,15.25,4.62,4.36,10.05,7.72,16.3,10.1,6.25,2.38,13.07,3.56,20.46,3.56s14.32-1.19,20.53-3.56c6.21-2.38,11.59-5.72,16.17-10.03,4.57-4.31,8.16-9.39,10.76-15.25,2.6-5.85,3.89-12.25,3.89-19.21s-1.3-13.33-3.89-19.14Zm-24.42,29.96c-1.28,3.26-3.04,6.05-5.28,8.38-2.24,2.33-4.88,4.12-7.92,5.35-3.04,1.23-6.32,1.85-9.83,1.85s-6.8-.61-9.83-1.85c-3.04-1.23-5.68-3.01-7.92-5.35-2.24-2.33-4.01-5.12-5.28-8.38-1.28-3.25-1.91-6.86-1.91-10.82s.64-7.68,1.91-10.89c1.28-3.21,3.04-5.98,5.28-8.32,2.24-2.33,4.88-4.11,7.92-5.35,3.04-1.23,6.31-1.85,9.83-1.85s6.8.62,9.83,1.85c3.04,1.23,5.68,3.02,7.92,5.35,2.24,2.33,4,5.1,5.28,8.32,1.28,3.21,1.91,6.84,1.91,10.89s-.64,7.57-1.91,10.82Z"/>
  </g>
  <text class="cls-1" transform="translate(618.62 582.41)"><tspan class="cls-5" x="0" y="0">NOR</tspan><tspan class="cls-4" x="315.74" y="0">.</tspan></text>
  <text class="cls-2" transform="translate(278.63 670.83)"><tspan x="0" y="0">TINGLADOS Y ACEROS</tspan></text>
</svg>